<?xml version="1.0" standalone="no"?>
<!DOCTYPE svg PUBLIC "-//W3C//DTD SVG 20010904//EN"
 "http://www.w3.org/TR/2001/REC-SVG-20010904/DTD/svg10.dtd">
<svg version="1.0" xmlns="http://www.w3.org/2000/svg"
 width="512.000000pt" height="512.000000pt" viewBox="0 0 512.000000 512.000000"
 preserveAspectRatio="xMidYMid meet">

<g transform="translate(0.000000,512.000000) scale(0.100000,-0.100000)"
fill="#000000" stroke="none">
<path d="M196 4808 c-12 -17 -16 -50 -16 -140 0 -154 3 -158 130 -158 l90 0 0
-2094 c0 -1891 2 -2096 16 -2110 27 -28 52 -18 121 50 74 71 130 108 181 119
29 6 37 2 70 -32 20 -21 49 -55 64 -75 31 -41 100 -78 145 -78 44 0 112 26
153 59 48 39 94 61 125 61 35 0 79 -24 98 -53 25 -39 100 -71 149 -63 60 10
97 32 164 102 81 85 95 85 182 -5 77 -79 144 -112 187 -93 l25 12 0 2100 0
2100 475 0 475 0 0 -2090 0 -2090 21 -21 c18 -18 29 -20 65 -15 59 8 92 26
177 97 95 80 119 81 179 2 25 -33 63 -69 88 -82 40 -22 47 -23 88 -12 60 16
95 42 143 107 47 65 80 88 109 79 12 -4 41 -34 66 -68 49 -68 108 -113 160
-123 54 -10 135 35 186 103 95 125 153 112 310 -75 29 -35 58 -41 82 -16 14
14 16 219 16 2110 l0 2094 90 0 c127 0 130 4 130 158 0 90 -4 123 -16 140
l-15 22 -2349 0 -2349 0 -15 -22z m4634 -133 l0 -55 -2270 0 -2270 0 0 55 0
55 2270 0 2270 0 0 -55z m-3910 -2192 l0 -2028 -20 31 c-71 110 -222 122 -346
28 -24 -19 -46 -34 -49 -34 -3 0 -5 907 -5 2015 l0 2015 210 0 210 0 0 -2027z
m530 -9 l0 -2035 -33 25 c-56 43 -105 59 -161 51 -51 -6 -117 -35 -151 -65
-11 -9 -32 -25 -47 -35 l-28 -17 0 2056 0 2056 210 0 210 0 0 -2036z m530 -6
l0 -2041 -57 61 c-103 108 -183 108 -299 -1 l-64 -59 0 2041 0 2041 210 0 210
0 0 -2042z m1580 20 l0 -2021 -36 36 c-83 83 -191 71 -304 -32 -25 -23 -53
-46 -62 -52 -17 -9 -18 91 -18 2041 l0 2050 210 0 210 0 0 -2022z m529 -15 c0
-1920 -1 -2037 -17 -2013 -112 164 -231 174 -352 29 l-50 -60 0 2040 0 2041
210 0 210 0 -1 -2037z m531 32 l0 -2005 -50 34 c-113 78 -213 66 -312 -37
l-58 -59 0 2036 0 2036 210 0 210 0 0 -2005z"/>
</g>
</svg>
