<?xml version="1.0" standalone="no"?>
<!DOCTYPE svg PUBLIC "-//W3C//DTD SVG 20010904//EN"
 "http://www.w3.org/TR/2001/REC-SVG-20010904/DTD/svg10.dtd">
<svg version="1.0" xmlns="http://www.w3.org/2000/svg"
 width="512.000000pt" height="512.000000pt" viewBox="0 0 512.000000 512.000000"
 preserveAspectRatio="xMidYMid meet">

<g transform="translate(0.000000,512.000000) scale(0.100000,-0.100000)"
fill="#000000" stroke="none">
<path d="M196 4808 c-12 -17 -16 -50 -16 -140 0 -154 3 -158 130 -158 l90 0 0
-2094 c0 -1891 2 -2096 16 -2110 26 -26 53 -18 102 30 76 75 126 113 172 129
56 20 80 8 140 -69 50 -65 114 -106 165 -106 46 0 114 26 155 59 48 39 94 61
125 61 35 0 79 -24 98 -53 20 -30 93 -67 133 -67 52 1 117 38 179 105 81 87
95 87 183 -4 86 -88 137 -110 217 -92 50 11 71 23 161 96 60 48 99 42 172 -27
74 -70 119 -86 196 -69 30 7 72 25 93 42 75 58 127 89 150 89 15 0 47 -22 87
-59 34 -32 79 -64 100 -71 72 -23 157 8 255 94 78 68 115 74 153 26 59 -77 80
-98 118 -115 35 -16 45 -17 83 -5 58 17 87 40 146 114 52 67 79 84 107 68 10
-5 40 -38 68 -73 58 -72 103 -106 152 -115 52 -10 133 34 184 99 86 108 136
112 229 19 31 -31 68 -72 83 -89 29 -36 58 -42 82 -17 14 14 16 219 16 2110
l0 2094 90 0 c127 0 130 4 130 158 0 90 -4 123 -16 140 l-15 22 -2349 0 -2349
0 -15 -22z m4634 -133 l0 -55 -2270 0 -2270 0 0 55 0 55 2270 0 2270 0 0 -55z
m-3910 -2192 l0 -2028 -20 31 c-71 110 -222 122 -346 28 -24 -19 -46 -34 -49
-34 -3 0 -5 907 -5 2015 l0 2015 210 0 210 0 0 -2027z m530 -9 l0 -2035 -33
25 c-56 43 -105 59 -161 51 -51 -6 -117 -35 -151 -65 -11 -9 -32 -25 -47 -35
l-28 -17 0 2056 0 2056 210 0 210 0 0 -2036z m530 -6 l0 -2041 -57 61 c-103
108 -183 108 -299 -1 l-64 -59 0 2041 0 2041 210 0 210 0 0 -2042z m530 7 c0
-1119 -4 -2035 -8 -2035 -5 0 -21 13 -37 30 -39 41 -85 60 -142 60 -51 0 -137
-34 -162 -64 -8 -9 -27 -26 -43 -37 l-28 -20 0 2050 0 2051 210 0 210 0 0
-2035z m520 -2 l0 -2037 -37 36 c-46 44 -79 58 -141 58 -58 0 -112 -24 -177
-79 -27 -22 -53 -41 -57 -41 -5 0 -8 923 -8 2050 l0 2050 210 0 210 0 0 -2037z
m530 16 l0 -2022 -44 41 c-87 80 -186 65 -311 -48 -31 -28 -57 -50 -60 -50 -3
0 -5 923 -5 2050 l0 2050 210 0 210 0 0 -2021z m529 -16 c0 -1920 -1 -2037
-17 -2013 -112 164 -231 174 -352 29 l-50 -60 0 2040 0 2041 210 0 210 0 -1
-2037z m531 32 c0 -1103 -2 -2005 -5 -2005 -3 0 -16 9 -28 21 -31 29 -67 47
-122 59 -74 17 -135 -8 -207 -83 l-58 -59 0 2036 0 2036 210 0 210 0 0 -2005z"/>
</g>
</svg>
